<svg id="Layer_1" data-name="Layer 1" xmlns="http://www.w3.org/2000/svg" viewBox="0 0 439 207"><defs><style>.cls-1{fill:#fff;}</style></defs><path class="cls-1" d="M158.32,157.72a2.73,2.73,0,0,1,0,2.17c-.61,1.38-2.23,1.05-3.44.9a31,31,0,0,0-5.78,0,14,14,0,0,1-2.89,0c-.5-.07-1.25-.23-1.25-.86,0-1,0-1.92,0-2.88-.06-4,0-8,0-12,0-1.94.1-3.9,0-5.84-.06-.7-.15-1.61.5-2.08a2.79,2.79,0,0,1,1.93-.23c1.95.18,3.91,0,5.87.06a24.77,24.77,0,0,0,2.86-.09,2.07,2.07,0,0,1,2.09.53,2.89,2.89,0,0,1,.37,1.95,1.65,1.65,0,0,1-1.15,1.53,8.66,8.66,0,0,1-2.49,0c-1,0-1.92,0-2.87-.1a4.37,4.37,0,0,0-2.46.23,1.89,1.89,0,0,0-.73,1.77c0,.46.07.92,0,1.38s-.09.84-.07,1.26a1.52,1.52,0,0,0,1,1.53c1.42.45,2.88-.66,4.29-.12a1.59,1.59,0,0,1,1,1.58,3.66,3.66,0,0,1-.3,1.91c-.89,1.56-3,.24-4.28.34a1.76,1.76,0,0,0-1.51,1.11,7.26,7.26,0,0,0-.14,2.63,3.82,3.82,0,0,0,.22,1.93,2.09,2.09,0,0,0,2,.69c.93,0,1.87-.11,2.8-.18a17.59,17.59,0,0,1,2.81-.06A1.89,1.89,0,0,1,158.32,157.72Z"/><path class="cls-1" d="M175.23,151.05a6.63,6.63,0,0,1,.49,5,7.64,7.64,0,0,1-6.45,5.13,10,10,0,0,1-5.28-1c-.92-.42-2.46-1.06-2.38-2.3a2.5,2.5,0,0,1,3.72-1.6,7.48,7.48,0,0,0,2.34,1,4.06,4.06,0,0,0,2.45-.34,3.22,3.22,0,0,0,1.77-3.64c-.43-1.43-1.92-2-3.21-2.44a17.8,17.8,0,0,1-4.65-2,6.44,6.44,0,0,1-2.63-3.94,6.7,6.7,0,0,1,4.52-7.68,8.23,8.23,0,0,1,5.3.16,9.87,9.87,0,0,1,2.37,1.17c.59.41,1.39,1,1.26,1.85s-.93,1.23-1.56,1.54a2.3,2.3,0,0,1-1.2.32,2.38,2.38,0,0,1-1.11-.55c-1.19-.83-2.88-1.37-4.23-.59a2.9,2.9,0,0,0-1.24,3.67c.69,1.36,2.33,1.62,3.63,2.06a20.93,20.93,0,0,1,2.57,1A7.67,7.67,0,0,1,175.23,151.05Z"/><path class="cls-1" d="M192.27,138a6.12,6.12,0,0,1,0,1.91,1.08,1.08,0,0,1-.64.88,5.72,5.72,0,0,1-2.33,0A1.66,1.66,0,0,0,187.4,142a7,7,0,0,0,0,2c.06.69.06,1.4.07,2.1,0,2.8-.08,5.61-.07,8.42,0,1.32,0,2.64.1,4,.06.88.11,2.06-1,2.32a7.7,7.7,0,0,1-1.59.13,1.4,1.4,0,0,1-1.34-.6,2.82,2.82,0,0,1-.2-1.55c0-.68.08-1.36.11-2,.1-2.81.05-5.63,0-8.45a40.64,40.64,0,0,1,0-4.13c0-.62.15-1.26.14-1.89A1.5,1.5,0,0,0,183,141c-.73-.45-1.7-.1-2.49-.05-.63,0-1.76,0-1.76-.88a13.62,13.62,0,0,1,0-2,1.14,1.14,0,0,1,.85-1.09,6.77,6.77,0,0,1,.9,0c.33,0,.67,0,1,0,1.37-.06,2.74,0,4.11,0a30.54,30.54,0,0,0,4.06-.1C190.75,136.74,192,136.75,192.27,138Z"/><path class="cls-1" d="M199.28,158.26a2.13,2.13,0,0,1-3.4,2.12,2.13,2.13,0,1,1,3.4-2.12Z"/><path class="cls-1" d="M218,156.93c.32.21.75.07,1.1,0a9.72,9.72,0,0,1,1.43-.06c1,0,2.06-.06,3.08-.09a2.33,2.33,0,0,1,2,.58,2.76,2.76,0,0,1,.26,2.28,1.49,1.49,0,0,1-.54,1,2.14,2.14,0,0,1-1.22.25c-1,0-2,0-3.05,0s-2.06,0-3.1,0-2.07,0-3.11,0c-.49,0-1,.05-1.47.08a2.32,2.32,0,0,1-1.25-.17,2,2,0,0,1-.71-1.85,4.12,4.12,0,0,1,.81-2.39,17.1,17.1,0,0,1,2-1.94c.71-.7,1.36-1.45,2-2.18,1.39-1.49,2.84-2.93,4.24-4.42,1.12-1.18,2.27-2.64,2-4.38a3.93,3.93,0,0,0-2.77-3.18,3.81,3.81,0,0,0-4,1.44,4.78,4.78,0,0,0-.67,2.46,1.42,1.42,0,0,1-.35,1,1.93,1.93,0,0,1-1.13.29,2.75,2.75,0,0,1-2.07-.24,2.2,2.2,0,0,1-.43-2.12,8.51,8.51,0,0,1,2.2-4.6,7.84,7.84,0,0,1,8.57-1.62A7.76,7.76,0,0,1,224,138.5a8,8,0,0,1,1.85,8.63,13.78,13.78,0,0,1-3.22,4.22c-1.39,1.42-2.73,2.89-4.17,4.26C218.17,155.89,217.42,156.56,218,156.93Z"/><path class="cls-1" d="M245.12,150.21a32.16,32.16,0,0,1,0,3.54,8,8,0,0,1-13.53,4.95,8.23,8.23,0,0,1-2.39-5.29c0-.59,0-1.18,0-1.78s0-1.17,0-1.76c0-1.2,0-2.4,0-3.6a12.13,12.13,0,0,1,.36-3.45,8,8,0,0,1,1.44-2.75,7.61,7.61,0,0,1,2.32-1.94,9.31,9.31,0,0,1,3.15-.92,5.26,5.26,0,0,1,1.68,0,14.31,14.31,0,0,1,1.72.4,7.1,7.1,0,0,1,1.48.75,8,8,0,0,1,2.25,2,7.86,7.86,0,0,1,1.33,2.8,13.72,13.72,0,0,1,.25,3.51C245.13,147.85,245.1,149,245.12,150.21Zm-4-2.6a8.74,8.74,0,0,0-.34-4.16,4.19,4.19,0,0,0-5.48-1.95,4.08,4.08,0,0,0-2.2,2.87,10.61,10.61,0,0,0,0,2.39c0,.79,0,1.57,0,2.36s0,1.62,0,2.42a9.56,9.56,0,0,0,.12,2.27,4.23,4.23,0,0,0,2.21,2.82,4.17,4.17,0,0,0,4.16-.4,4.26,4.26,0,0,0,1.67-3.68A38.76,38.76,0,0,1,241.15,147.61Z"/><path class="cls-1" d="M254.91,156.93c.32.21.75.07,1.1,0a9.72,9.72,0,0,1,1.43-.06c1,0,2.06-.06,3.08-.09a2.33,2.33,0,0,1,2,.58,2.76,2.76,0,0,1,.26,2.28,1.49,1.49,0,0,1-.54,1,2.14,2.14,0,0,1-1.22.25c-1,0-2,0-3.05,0s-2.06,0-3.1,0-2.07,0-3.11,0c-.49,0-1,.05-1.48.08a2.29,2.29,0,0,1-1.24-.17,2,2,0,0,1-.71-1.85,4.12,4.12,0,0,1,.81-2.39,17.1,17.1,0,0,1,2-1.94c.71-.7,1.36-1.45,2-2.18,1.39-1.49,2.84-2.93,4.24-4.42,1.12-1.18,2.27-2.64,2-4.38a3.93,3.93,0,0,0-2.77-3.18,3.81,3.81,0,0,0-4,1.44,4.78,4.78,0,0,0-.67,2.46,1.42,1.42,0,0,1-.35,1,1.93,1.93,0,0,1-1.13.29,2.75,2.75,0,0,1-2.07-.24,2.2,2.2,0,0,1-.43-2.12,8.51,8.51,0,0,1,2.2-4.6,7.84,7.84,0,0,1,8.57-1.62,7.76,7.76,0,0,1,2.19,1.48,8,8,0,0,1,1.85,8.63,13.78,13.78,0,0,1-3.22,4.22c-1.39,1.42-2.73,2.89-4.17,4.26C255.09,155.89,254.34,156.56,254.91,156.93Z"/><path class="cls-1" d="M282,150.21a32.16,32.16,0,0,1,0,3.54,8,8,0,0,1-13.53,4.95,8.23,8.23,0,0,1-2.39-5.29c0-.59,0-1.18,0-1.78s0-1.17,0-1.76c0-1.2,0-2.4,0-3.6a12.49,12.49,0,0,1,.35-3.45,8.16,8.16,0,0,1,1.45-2.75,7.61,7.61,0,0,1,2.32-1.94,9.31,9.31,0,0,1,3.15-.92,5.26,5.26,0,0,1,1.68,0,14.31,14.31,0,0,1,1.72.4,7.1,7.1,0,0,1,1.48.75,8,8,0,0,1,2.25,2,7.86,7.86,0,0,1,1.33,2.8,13.72,13.72,0,0,1,.25,3.51C282.05,147.85,282,149,282,150.21Zm-4-2.6a8.74,8.74,0,0,0-.34-4.16,4.19,4.19,0,0,0-5.48-1.95,4.08,4.08,0,0,0-2.2,2.87,10.61,10.61,0,0,0,0,2.39c0,.79,0,1.57,0,2.36s0,1.62,0,2.42a9.56,9.56,0,0,0,.12,2.27,4.23,4.23,0,0,0,2.21,2.82,4.17,4.17,0,0,0,4.16-.4,4.26,4.26,0,0,0,1.67-3.68A38.76,38.76,0,0,1,278.07,147.61Z"/><path class="cls-1" d="M71.31,110.78c1,1.22,3.07,3,2.54,4.83-.35,1.16-1.75,1.69-2.79,2a11.06,11.06,0,0,1-4,.67c-2.8-.21-4-2.83-5-5.06a7.47,7.47,0,0,0-2.07-3,4.69,4.69,0,0,0-3.85-.52c-1.57.33-3,1-4.6,1.39s-3.16.41-4.58,1.12c-2.29,1.14-2.74,3.81-2.6,6.13.13,2,.65,4.52-.93,6.14a8,8,0,0,1-3.86,1.7c-1,.28-2.21.78-3.27.41-1.34-.48-1.43-2.09-1.41-3.29,0-1.67.15-3.33.19-5,.1-3.35,0-6.7,0-10,0-6.83,0-13.67,0-20.5,0-3.37,0-6.75,0-10.12,0-1.65.08-3.29,0-4.93-.07-1.22-.26-2.59.48-3.66A4.68,4.68,0,0,1,39,67.5a4.58,4.58,0,0,0,.89-.38A6.08,6.08,0,0,1,41,66.94a12.32,12.32,0,0,1,2.52-.6,4.23,4.23,0,0,1,3.07,1.89,26.38,26.38,0,0,1,2.17,4c.77,1.47,1.64,2.89,2.49,4.31,3.48,5.85,6.87,11.75,10.31,17.63,1.7,2.88,3.43,5.75,5,8.69A48,48,0,0,0,71.31,110.78ZM53.79,99.21a6.33,6.33,0,0,0-1.11-1.78c-.46-.67-.79-1.42-1.19-2.12-1.53-2.73-3.77-5.07-4.8-8.07-.21-.6-.27-1.43-.78-1.88a.82.82,0,0,0-1.34.37,4.06,4.06,0,0,0-.07,2c0,.78,0,1.55-.06,2.33s.06,1.6.07,2.4-.07,1.69-.09,2.53.07,1.6.08,2.4-.1,1.62-.11,2.43c0,1.16.22,2.84,1.59,3.14a4.31,4.31,0,0,0,2.32-.49c1-.33,2-.48,2.94-.86.69-.27,1.55-.12,2.14-.65A1.71,1.71,0,0,0,53.79,99.21Z"/><path class="cls-1" d="M113.15,100.8c1.61,1.19,2,3.58,1.9,5.46a3.6,3.6,0,0,1-1.49,2.93,10.05,10.05,0,0,1-4.11,1c-3.2.43-6.37.94-9.56,1.45A60,60,0,0,0,91,113.4c-2,.64-4.54,1.71-6.46.33s-1.69-4.51-1.9-6.68c-.31-3.18-1-6.3-1.64-9.44-1.25-6.46-2.3-13-3.39-19.45-.54-3.2-1.08-6.4-1.68-9.59-.28-1.49-.57-3-1-4.44-.37-1.29-.86-2.75-.33-4.07.75-1.89,3.16-2.11,4.89-2.32,1.45-.18,4-.53,4.31,1.44.27,1.5.51,3,.76,4.53,1,6.45,2,12.91,3.26,19.33.62,3.19,1.26,6.38,1.84,9.58.3,1.61.59,3.23.74,4.87a12.35,12.35,0,0,0,.64,4c1,2.28,3.44,2,5.47,1.56,3.16-.61,6.37-1,9.49-1.84C108.19,100.6,111.05,99.24,113.15,100.8Z"/><path class="cls-1" d="M143.08,51.47a14,14,0,0,1,.48,4.52,2.54,2.54,0,0,1-1.25,2.24c-1.64.93-3.72.43-5.5.61-2,.2-3.9,1.14-4.1,3.35a15.68,15.68,0,0,0,.68,4.65c.33,1.63.53,3.28.73,4.93.8,6.61,1.39,13.25,2.18,19.86.37,3.1.76,6.23,1.34,9.3.39,2.07.83,4.82-1.63,5.73a17.75,17.75,0,0,1-3.7.76,3.34,3.34,0,0,1-3.33-1,6.82,6.82,0,0,1-.89-3.61c-.12-1.6-.19-3.21-.32-4.82-.53-6.65-1.44-13.29-2.42-19.89a96.77,96.77,0,0,1-1.19-9.73c-.07-1.48,0-3-.19-4.48a3.52,3.52,0,0,0-1.82-2.9c-1.85-.85-4,.24-5.88.57-1.46.26-4.15.43-4.39-1.59a31.58,31.58,0,0,1-.62-4.73c0-1.2.43-2.46,1.7-2.81a12.35,12.35,0,0,1,2.11-.18c.8-.08,1.59-.24,2.38-.37,3.21-.52,6.46-.78,9.69-1.07a68.06,68.06,0,0,0,9.54-1.36C139.13,48.83,142.16,48.49,143.08,51.47Z"/><path class="cls-1" d="M218.88,66.59c0,.85-.1,1.7-.06,2.55a10.86,10.86,0,0,1,.08,1.28c0,.43-.16.85-.16,1.29a13.57,13.57,0,0,1-3,8.85,36.79,36.79,0,0,0-3.13,3.24,5.06,5.06,0,0,0-.57,4.56,22.13,22.13,0,0,0,2.58,4.13c.89,1.41,1.55,3,2.54,4.29.76,1,2,2.16,1.74,3.58s-1.67,1.8-2.85,2c-2.72.5-5.78.16-7.72-2a21.31,21.31,0,0,1-2.53-4.2c-.84-1.56-1.78-3.08-2.61-4.65-.65-1.22-1.25-2.58-2.55-3.23a6.9,6.9,0,0,0-4.46-.34c-2.63.6-3,3.29-2.87,5.59.16,2.65,1.5,6.54-1,8.55a6,6,0,0,1-3.92,1,4.28,4.28,0,0,1-3.84-1.77c-.75-1.33-.59-3-.54-4.48.07-1.85.15-3.68.15-5.52,0-3.85-.17-7.69-.22-11.53-.1-7.59.09-15.2-.27-22.79-.08-1.79-.26-3.57-.42-5.36-.13-1.45-.2-3.18.76-4.39,1.4-1.74,4.08-1.45,6-1.29,3.82.31,7.66-.25,11.48.08a18.19,18.19,0,0,1,15.33,10.17A14.84,14.84,0,0,1,218.62,61a23,23,0,0,1,.11,2.62C218.76,64.59,218.88,65.59,218.88,66.59Zm-9.32-1.36a13.28,13.28,0,0,0-.48-3.72c-1.3-4-5.46-6.09-9.44-6.37A33.87,33.87,0,0,0,196,55a3.18,3.18,0,0,0-2.66,1.21c-1,1.5-.55,3.6-.4,5.29.28,3.06,0,6.15.06,9.22,0,1.58.16,3.16.15,4.74,0,1-.15,2.32.81,3a3.09,3.09,0,0,0,1.7.25l2,0a28.63,28.63,0,0,0,3.93-.13,9,9,0,0,0,6.07-2.88,10.3,10.3,0,0,0,2-6.36C209.69,68,209.59,66.6,209.56,65.23Z"/><path class="cls-1" d="M267.23,71.36c-.21,3-.36,6-.49,9s-.19,5.84-.58,8.73a20.28,20.28,0,0,1-2.41,7.64,16.38,16.38,0,0,1-4.94,5.24c-7.14,4.87-17.66,4.07-23.86-2a16.08,16.08,0,0,1-4-6.19,24.19,24.19,0,0,1-1-8.21c.06-5.91.53-11.82.82-17.73a34.86,34.86,0,0,1,1.05-8.45,18.24,18.24,0,0,1,3.79-6.69,17.24,17.24,0,0,1,12.24-5.46c1.45-.05,2.91.06,4.36.1a7.91,7.91,0,0,1,1.8.38c.74.2,1.5.36,2.23.61a15.14,15.14,0,0,1,3.55,1.84,17.75,17.75,0,0,1,5.07,5.32,18.16,18.16,0,0,1,2.5,7.35A47.89,47.89,0,0,1,267.23,71.36ZM258,69.28a25.4,25.4,0,0,0,.14-5.3,8.93,8.93,0,0,0-4.46-6.65,9.42,9.42,0,0,0-8.83,0,9.53,9.53,0,0,0-4.5,6.73,32.74,32.74,0,0,0-.29,5.69c0,1.81-.09,3.62-.2,5.43a110.9,110.9,0,0,0-.66,11.08c.09,2.7.65,5.69,2.82,7.53a9,9,0,0,0,4.87,1.81,10.61,10.61,0,0,0,5.41-.66,8.28,8.28,0,0,0,3.65-3.28,7,7,0,0,0,1-2.68c.14-1-.05-2,.12-3.07a50.8,50.8,0,0,0,.3-5.65c.07-1.84.26-3.67.37-5.51S257.86,71.09,258,69.28Z"/><path class="cls-1" d="M315.21,79.1a119.68,119.68,0,0,1-1.84,14.39c-.89,3.91-2.48,7.81-5.48,10.58A17.68,17.68,0,0,1,297,108.52c-7,.41-14.3-3.14-17.63-9.4-2-3.78-2.21-8.14-1.92-12.32.33-4.77,1.14-9.48,1.76-14.22s1.21-9.73,1.68-14.61c.11-1.14.21-2.27.34-3.41a12.43,12.43,0,0,1,.57-3.32c.65-1.59,2.08-1.77,3.62-1.62s3.36.1,4.54,1.16c1.48,1.33,1,3.78.8,5.52-.66,4.78-1.34,9.56-1.91,14.35s-1,9.61-1.78,14.38c-.54,3.49-1.19,7.5,1,10.59s6.11,4.08,9.57,3.47A8.37,8.37,0,0,0,304.37,92c.27-2.29.51-4.58.77-6.88.54-4.88,1.33-9.73,2-14.59s.95-9.51,1.24-14.29c.1-1.56.63-3.22,2.39-3.47a12.37,12.37,0,0,1,3.15.24,7.23,7.23,0,0,1,2.93.68c1.49.86,1.24,2.63,1,4.08-.4,2.24-.66,4.51-.93,6.78C316.34,69.41,315.7,74.25,315.21,79.1Z"/><path class="cls-1" d="M360,63.15a14,14,0,0,1-.85,4.47,2.53,2.53,0,0,1-1.84,1.79c-1.84.41-3.68-.66-5.44-1-2-.39-4.06,0-4.9,2a16.28,16.28,0,0,0-.69,4.66c-.15,1.65-.44,3.29-.72,4.93-1.14,6.56-2.49,13.08-3.64,19.64-.55,3.08-1.07,6.18-1.4,9.3-.22,2.09-.6,4.85-3.21,5a19.1,19.1,0,0,1-3.77-.35,3.35,3.35,0,0,1-2.89-2,6.93,6.93,0,0,1,.19-3.72c.36-1.57.74-3.13,1.09-4.7,1.41-6.53,2.45-13.15,3.42-19.75A95.58,95.58,0,0,1,337,73.83c.37-1.44.89-2.87,1.12-4.34a3.56,3.56,0,0,0-.91-3.31c-1.53-1.34-3.94-.93-5.8-1.15-1.47-.17-4.1-.78-3.74-2.79a31.25,31.25,0,0,1,.77-4.71c.37-1.13,1.12-2.23,2.44-2.19a12.49,12.49,0,0,1,2.07.43c.79.16,1.59.23,2.39.34,3.22.42,6.4,1.12,9.58,1.77a68.33,68.33,0,0,0,9.53,1.45C357,59.49,360,60,360,63.15Z"/><path class="cls-1" d="M393.19,118.6a6.53,6.53,0,0,1-1.26,5c-2.17,2.84-5.73,1.19-8.42.19a74.46,74.46,0,0,0-13.34-3.19,34.7,34.7,0,0,1-6.68-1.57c-1.1-.43-2.75-1.22-2.4-2.67.52-2.22,1-4.46,1.47-6.68,2.05-9.27,4.27-18.5,6.56-27.72,1.11-4.47,2.36-9,3.08-13.5.26-1.65.54-3.81,2.31-4.54,1.47-.61,3.15.06,4.56.53,4.42,1.48,9,2.25,13.53,3.33a56,56,0,0,0,6.65,1.36c1.75.2,3.77.54,4.53,2.37a6.89,6.89,0,0,1-.21,4.71,3.87,3.87,0,0,1-3.5,2.89c-1.94.07-3.89-.85-5.73-1.36-2.2-.6-4.41-1.12-6.58-1.79-1.78-.55-3.95-1.4-5.81-.81-1.61.51-2.32,2.15-2.65,3.68-.24,1.07-.34,2.17-.64,3.23s-.67,1.88-.85,2.87A3.62,3.62,0,0,0,379.33,89c3.05,1.82,7,.07,10,2.07,1.45,1,1.65,2.55,1.34,4.16a8.71,8.71,0,0,1-1.73,4.27c-2.92,3.1-7-1.07-10.07-1.55a4.13,4.13,0,0,0-4.09,1.72c-1.21,1.76-1.29,4-1.75,6-.34,1.46-1,3.07-.55,4.57.58,1.82,2.6,2.36,4.26,2.69,2.18.42,4.37.76,6.55,1.11a40.13,40.13,0,0,1,6.53,1.39C391.38,116,392.83,116.86,393.19,118.6Z"/></svg>